M48
; DRILL file KiCad 10.0.5-10.0.5~ubuntu24.04.1 date 2026-09-02T21:18:42
; FORMAT={-:-/ absolute / metric / decimal}
; #@! TF.CreationDate,2026-09-02T21:18:42-06:00
; #@! TF.GenerationSoftware,Kicad,Pcbnew,10.0.5-10.0.5~ubuntu24.04.1
; #@! TF.FileFunction,Plated,1,4,PTH
FMAT,2
METRIC
; #@! TA.AperFunction,Plated,PTH,ViaDrill
T1C0.300
; #@! TA.AperFunction,Plated,PTH,ViaDrill
T2C0.600
; #@! TA.AperFunction,Plated,PTH,ComponentDrill
T3C1.000
; #@! TA.AperFunction,Plated,PTH,ComponentDrill
T4C1.400
; #@! TA.AperFunction,Plated,PTH,ComponentDrill
T5C1.700
%
G90
G05
T1
X38.212Y-51.125
X38.212Y-54.125
X41.15Y-69.0
X42.65Y-101.0
X43.175Y-69.125
X44.15Y-64.0
X45.35Y-63.1
X45.875Y-65.0
X48.15Y-67.5
X49.15Y-83.095
X49.15Y-84.365
X49.15Y-85.635
X49.875Y-79.0
X50.0Y-63.325
X50.0Y-65.95
X51.05Y-66.15
X51.05Y-101.0
X51.15Y-53.0
X51.55Y-61.05
X51.6Y-59.55
X51.65Y-72.05
X51.875Y-62.0
X51.875Y-65.0
X51.875Y-68.0
X53.1Y-73.75
X53.35Y-51.1
X53.5Y-58.7
X53.5Y-65.55
X53.875Y-79.0
X54.15Y-74.8
X54.4Y-64.3
X54.65Y-51.9
X54.9Y-68.325
X55.0Y-54.35
X55.15Y-53.0
X55.85Y-56.35
X55.95Y-48.3
X56.0Y-85.75
X56.0Y-90.05
X56.3Y-50.8
X56.3Y-68.95
X56.65Y-101.0
X57.05Y-52.3
X57.15Y-79.5
X57.2Y-61.2
X57.225Y-64.4
X57.25Y-65.35
X57.7Y-71.05
X58.1Y-69.55
X58.75Y-66.75
X59.15Y-53.0
X59.525Y-66.925
X59.95Y-48.3
X60.05Y-72.35
X60.15Y-49.7
X60.3Y-50.8
X60.3Y-66.75
X61.15Y-79.5
X61.225Y-86.925
X61.35Y-53.85
X61.75Y-92.5
X61.95Y-57.85
X62.75Y-61.2
X62.8Y-63.8
X63.15Y-53.0
X63.325Y-82.425
X63.7Y-50.8
X63.7Y-68.2
X63.7Y-73.725
X63.85Y-56.6
X63.875Y-85.8
X63.875Y-89.0
X63.9Y-57.65
X64.1Y-49.8
X64.2Y-59.45
X64.537Y-80.9
X64.7Y-92.5
X64.75Y-56.8
X64.8Y-52.3
X64.85Y-84.95
X64.925Y-60.325
X64.95Y-58.7
X65.05Y-101.0
X65.15Y-77.0
X65.55Y-87.125
X65.7Y-63.3
X66.225Y-84.25
X66.85Y-56.65
X67.15Y-53.0
X67.2Y-86.9
X67.4Y-65.65
X67.65Y-63.3
X68.1Y-49.8
X68.202Y-84.223
X68.3Y-50.8
X68.375Y-58.175
X68.6Y-88.5
X68.832Y-84.965
X68.875Y-86.525
X69.1Y-53.8
X69.75Y-81.35
X70.1Y-89.85
X70.175Y-59.975
X70.175Y-66.0
X70.5Y-56.05
X70.5Y-84.5
X70.625Y-88.275
X70.65Y-101.0
X71.15Y-53.0
X71.45Y-87.55
X71.625Y-67.475
X72.05Y-52.95
X72.1Y-50.0
X72.45Y-60.2
X72.5Y-74.5
X72.5Y-76.5
X72.9Y-54.4
X73.1Y-63.05
X73.2Y-51.25
X74.45Y-54.7
X74.675Y-63.575
X75.0Y-60.6
X75.0Y-62.2
X75.1Y-84.2
X75.1Y-86.0
X75.1Y-87.8
X75.15Y-53.0
X75.425Y-89.7
X75.9Y-49.8
X76.0Y-84.2
X76.0Y-86.0
X76.0Y-87.8
X76.4Y-57.35
X76.725Y-74.5
X76.75Y-58.75
X76.9Y-84.2
X76.9Y-86.0
X76.9Y-87.8
X77.475Y-82.25
X77.775Y-54.175
X77.8Y-59.8
X77.9Y-57.6
X78.25Y-46.65
X78.25Y-49.4
X79.05Y-101.0
X79.15Y-53.0
X80.275Y-85.05
X80.275Y-88.35
X81.0Y-56.6
X81.075Y-85.125
X81.5Y-78.5
X81.5Y-84.5
X81.9Y-46.3
X82.3Y-83.525
X82.5Y-55.1
X82.95Y-62.1
X83.5Y-47.9
X84.65Y-101.0
X85.688Y-76.5
X86.0Y-85.05
X86.5Y-46.4
X86.5Y-48.45
X86.55Y-62.65
X86.775Y-90.125
X87.25Y-59.75
X87.462Y-83.95
X87.875Y-86.0
X88.675Y-82.425
X89.1Y-61.25
X89.2Y-59.75
X89.225Y-86.625
X89.75Y-89.0
X91.5Y-79.3
X91.875Y-85.5
X92.7Y-89.0
X92.85Y-80.8
X92.875Y-78.0
X93.05Y-101.0
X93.55Y-89.05
X93.55Y-90.0
X94.862Y-91.9
X95.75Y-95.0
X97.35Y-86.1
X98.1Y-81.0
X98.7Y-95.0
X100.225Y-96.125
X102.1Y-81.0
X102.875Y-95.0
X104.875Y-93.175
X106.0Y-91.875
X107.15Y-81.0
T2
X71.5Y-84.0
X80.5Y-84.0
T3
X85.0Y-49.0
X85.0Y-51.54
X85.0Y-54.08
X85.0Y-56.62
X85.0Y-59.16
X92.0Y-49.0
X92.0Y-51.54
X92.0Y-54.08
X92.0Y-56.62
X92.0Y-59.16
X99.0Y-49.0
X99.0Y-51.54
X99.0Y-54.08
T4
X37.0Y-82.46
X37.0Y-87.54
T5
X76.0Y-70.0
X79.96Y-70.0
X83.92Y-70.0
X87.88Y-70.0
M30
