%TF.GenerationSoftware,KiCad,Pcbnew,10.0.5-10.0.5~ubuntu24.04.1*%
%TF.CreationDate,2026-09-02T21:18:42-06:00*%
%TF.ProjectId,stepper_controller,73746570-7065-4725-9f63-6f6e74726f6c,rev?*%
%TF.SameCoordinates,Original*%
%TF.FileFunction,Legend,Top*%
%TF.FilePolarity,Positive*%
%FSLAX46Y46*%
G04 Gerber Fmt 4.6, Leading zero omitted, Abs format (unit mm)*
G04 Created by KiCad (PCBNEW 10.0.5-10.0.5~ubuntu24.04.1) date 2026-09-02 21:18:42*
%MOMM*%
%LPD*%
G01*
G04 APERTURE LIST*
G04 Aperture macros list*
%AMRoundRect*
0 Rectangle with rounded corners*
0 $1 Rounding radius*
0 $2 $3 $4 $5 $6 $7 $8 $9 X,Y pos of 4 corners*
0 Add a 4 corners polygon primitive as box body*
4,1,4,$2,$3,$4,$5,$6,$7,$8,$9,$2,$3,0*
0 Add four circle primitives for the rounded corners*
1,1,$1+$1,$2,$3*
1,1,$1+$1,$4,$5*
1,1,$1+$1,$6,$7*
1,1,$1+$1,$8,$9*
0 Add four rect primitives between the rounded corners*
20,1,$1+$1,$2,$3,$4,$5,0*
20,1,$1+$1,$4,$5,$6,$7,0*
20,1,$1+$1,$6,$7,$8,$9,0*
20,1,$1+$1,$8,$9,$2,$3,0*%
G04 Aperture macros list end*
%ADD10C,0.200000*%
%ADD11C,0.120000*%
%ADD12RoundRect,0.250000X-0.250000X-0.475000X0.250000X-0.475000X0.250000X0.475000X-0.250000X0.475000X0*%
%ADD13RoundRect,0.250000X-0.312500X-0.625000X0.312500X-0.625000X0.312500X0.625000X-0.312500X0.625000X0*%
%ADD14RoundRect,0.250000X-0.325000X-0.650000X0.325000X-0.650000X0.325000X0.650000X-0.325000X0.650000X0*%
%ADD15R,1.700000X1.700000*%
%ADD16C,1.700000*%
%ADD17RoundRect,0.200000X-0.200000X-0.275000X0.200000X-0.275000X0.200000X0.275000X-0.200000X0.275000X0*%
%ADD18RoundRect,0.250000X-1.950000X-1.000000X1.950000X-1.000000X1.950000X1.000000X-1.950000X1.000000X0*%
%ADD19RoundRect,0.050010X-0.099990X-0.199990X0.099990X-0.199990X0.099990X0.199990X-0.099990X0.199990X0*%
%ADD20R,2.200000X2.400000*%
%ADD21RoundRect,0.225000X-0.225000X-0.250000X0.225000X-0.250000X0.225000X0.250000X-0.225000X0.250000X0*%
%ADD22RoundRect,0.200000X0.275000X-0.200000X0.275000X0.200000X-0.275000X0.200000X-0.275000X-0.200000X0*%
%ADD23C,3.200000*%
%ADD24C,1.000000*%
%ADD25R,2.750000X0.800000*%
%ADD26RoundRect,0.100000X-0.675000X-0.100000X0.675000X-0.100000X0.675000X0.100000X-0.675000X0.100000X0*%
%ADD27RoundRect,0.150000X-0.825000X-0.150000X0.825000X-0.150000X0.825000X0.150000X-0.825000X0.150000X0*%
%ADD28RoundRect,0.250000X0.312500X0.625000X-0.312500X0.625000X-0.312500X-0.625000X0.312500X-0.625000X0*%
%ADD29RoundRect,0.218750X-0.218750X-0.256250X0.218750X-0.256250X0.218750X0.256250X-0.218750X0.256250X0*%
%ADD30R,2.600000X2.600000*%
%ADD31C,2.600000*%
%ADD32RoundRect,0.250000X0.250000X0.475000X-0.250000X0.475000X-0.250000X-0.475000X0.250000X-0.475000X0*%
%ADD33RoundRect,0.250001X1.099999X1.099999X-1.099999X1.099999X-1.099999X-1.099999X1.099999X-1.099999X0*%
%ADD34C,2.700000*%
%ADD35RoundRect,0.150000X-0.512500X-0.150000X0.512500X-0.150000X0.512500X0.150000X-0.512500X0.150000X0*%
%ADD36RoundRect,0.250000X0.900000X-1.000000X0.900000X1.000000X-0.900000X1.000000X-0.900000X-1.000000X0*%
%ADD37RoundRect,0.125000X-0.625000X-0.125000X0.625000X-0.125000X0.625000X0.125000X-0.625000X0.125000X0*%
%ADD38RoundRect,0.125000X-0.125000X-0.625000X0.125000X-0.625000X0.125000X0.625000X-0.125000X0.625000X0*%
G04 APERTURE END LIST*
D10*
X39390476Y-66897790D02*
X39314286Y-66859695D01*
X39314286Y-66859695D02*
X39200000Y-66859695D01*
X39200000Y-66859695D02*
X39085714Y-66897790D01*
X39085714Y-66897790D02*
X39009524Y-66973980D01*
X39009524Y-66973980D02*
X38971429Y-67050171D01*
X38971429Y-67050171D02*
X38933333Y-67202552D01*
X38933333Y-67202552D02*
X38933333Y-67316838D01*
X38933333Y-67316838D02*
X38971429Y-67469219D01*
X38971429Y-67469219D02*
X39009524Y-67545409D01*
X39009524Y-67545409D02*
X39085714Y-67621600D01*
X39085714Y-67621600D02*
X39200000Y-67659695D01*
X39200000Y-67659695D02*
X39276191Y-67659695D01*
X39276191Y-67659695D02*
X39390476Y-67621600D01*
X39390476Y-67621600D02*
X39428572Y-67583504D01*
X39428572Y-67583504D02*
X39428572Y-67316838D01*
X39428572Y-67316838D02*
X39276191Y-67316838D01*
X39771429Y-67659695D02*
X39771429Y-66859695D01*
X39771429Y-66859695D02*
X40228572Y-67659695D01*
X40228572Y-67659695D02*
X40228572Y-66859695D01*
X40609524Y-67659695D02*
X40609524Y-66859695D01*
X40609524Y-66859695D02*
X40800000Y-66859695D01*
X40800000Y-66859695D02*
X40914286Y-66897790D01*
X40914286Y-66897790D02*
X40990476Y-66973980D01*
X40990476Y-66973980D02*
X41028571Y-67050171D01*
X41028571Y-67050171D02*
X41066667Y-67202552D01*
X41066667Y-67202552D02*
X41066667Y-67316838D01*
X41066667Y-67316838D02*
X41028571Y-67469219D01*
X41028571Y-67469219D02*
X40990476Y-67545409D01*
X40990476Y-67545409D02*
X40914286Y-67621600D01*
X40914286Y-67621600D02*
X40800000Y-67659695D01*
X40800000Y-67659695D02*
X40609524Y-67659695D01*
X37295238Y-71659695D02*
X37295238Y-70859695D01*
X37295238Y-70859695D02*
X37485714Y-70859695D01*
X37485714Y-70859695D02*
X37600000Y-70897790D01*
X37600000Y-70897790D02*
X37676190Y-70973980D01*
X37676190Y-70973980D02*
X37714285Y-71050171D01*
X37714285Y-71050171D02*
X37752381Y-71202552D01*
X37752381Y-71202552D02*
X37752381Y-71316838D01*
X37752381Y-71316838D02*
X37714285Y-71469219D01*
X37714285Y-71469219D02*
X37676190Y-71545409D01*
X37676190Y-71545409D02*
X37600000Y-71621600D01*
X37600000Y-71621600D02*
X37485714Y-71659695D01*
X37485714Y-71659695D02*
X37295238Y-71659695D01*
X38552381Y-71659695D02*
X38285714Y-71278742D01*
X38095238Y-71659695D02*
X38095238Y-70859695D01*
X38095238Y-70859695D02*
X38400000Y-70859695D01*
X38400000Y-70859695D02*
X38476190Y-70897790D01*
X38476190Y-70897790D02*
X38514285Y-70935885D01*
X38514285Y-70935885D02*
X38552381Y-71012076D01*
X38552381Y-71012076D02*
X38552381Y-71126361D01*
X38552381Y-71126361D02*
X38514285Y-71202552D01*
X38514285Y-71202552D02*
X38476190Y-71240647D01*
X38476190Y-71240647D02*
X38400000Y-71278742D01*
X38400000Y-71278742D02*
X38095238Y-71278742D01*
X38780952Y-70859695D02*
X39047619Y-71659695D01*
X39047619Y-71659695D02*
X39314285Y-70859695D01*
X39390476Y-71735885D02*
X39999999Y-71735885D01*
X40152380Y-71621600D02*
X40266666Y-71659695D01*
X40266666Y-71659695D02*
X40457142Y-71659695D01*
X40457142Y-71659695D02*
X40533333Y-71621600D01*
X40533333Y-71621600D02*
X40571428Y-71583504D01*
X40571428Y-71583504D02*
X40609523Y-71507314D01*
X40609523Y-71507314D02*
X40609523Y-71431123D01*
X40609523Y-71431123D02*
X40571428Y-71354933D01*
X40571428Y-71354933D02*
X40533333Y-71316838D01*
X40533333Y-71316838D02*
X40457142Y-71278742D01*
X40457142Y-71278742D02*
X40304761Y-71240647D01*
X40304761Y-71240647D02*
X40228571Y-71202552D01*
X40228571Y-71202552D02*
X40190476Y-71164457D01*
X40190476Y-71164457D02*
X40152380Y-71088266D01*
X40152380Y-71088266D02*
X40152380Y-71012076D01*
X40152380Y-71012076D02*
X40190476Y-70935885D01*
X40190476Y-70935885D02*
X40228571Y-70897790D01*
X40228571Y-70897790D02*
X40304761Y-70859695D01*
X40304761Y-70859695D02*
X40495238Y-70859695D01*
X40495238Y-70859695D02*
X40609523Y-70897790D01*
X40838095Y-70859695D02*
X41295238Y-70859695D01*
X41066666Y-71659695D02*
X41066666Y-70859695D01*
X41561905Y-71240647D02*
X41828571Y-71240647D01*
X41942857Y-71659695D02*
X41561905Y-71659695D01*
X41561905Y-71659695D02*
X41561905Y-70859695D01*
X41561905Y-70859695D02*
X41942857Y-70859695D01*
X42285715Y-71659695D02*
X42285715Y-70859695D01*
X42285715Y-70859695D02*
X42590477Y-70859695D01*
X42590477Y-70859695D02*
X42666667Y-70897790D01*
X42666667Y-70897790D02*
X42704762Y-70935885D01*
X42704762Y-70935885D02*
X42742858Y-71012076D01*
X42742858Y-71012076D02*
X42742858Y-71126361D01*
X42742858Y-71126361D02*
X42704762Y-71202552D01*
X42704762Y-71202552D02*
X42666667Y-71240647D01*
X42666667Y-71240647D02*
X42590477Y-71278742D01*
X42590477Y-71278742D02*
X42285715Y-71278742D01*
X44752381Y-71659695D02*
X44752381Y-70859695D01*
X44752381Y-70859695D02*
X44942857Y-70859695D01*
X44942857Y-70859695D02*
X45057143Y-70897790D01*
X45057143Y-70897790D02*
X45133333Y-70973980D01*
X45133333Y-70973980D02*
X45171428Y-71050171D01*
X45171428Y-71050171D02*
X45209524Y-71202552D01*
X45209524Y-71202552D02*
X45209524Y-71316838D01*
X45209524Y-71316838D02*
X45171428Y-71469219D01*
X45171428Y-71469219D02*
X45133333Y-71545409D01*
X45133333Y-71545409D02*
X45057143Y-71621600D01*
X45057143Y-71621600D02*
X44942857Y-71659695D01*
X44942857Y-71659695D02*
X44752381Y-71659695D01*
X46009524Y-71659695D02*
X45742857Y-71278742D01*
X45552381Y-71659695D02*
X45552381Y-70859695D01*
X45552381Y-70859695D02*
X45857143Y-70859695D01*
X45857143Y-70859695D02*
X45933333Y-70897790D01*
X45933333Y-70897790D02*
X45971428Y-70935885D01*
X45971428Y-70935885D02*
X46009524Y-71012076D01*
X46009524Y-71012076D02*
X46009524Y-71126361D01*
X46009524Y-71126361D02*
X45971428Y-71202552D01*
X45971428Y-71202552D02*
X45933333Y-71240647D01*
X45933333Y-71240647D02*
X45857143Y-71278742D01*
X45857143Y-71278742D02*
X45552381Y-71278742D01*
X46238095Y-70859695D02*
X46504762Y-71659695D01*
X46504762Y-71659695D02*
X46771428Y-70859695D01*
X46847619Y-71735885D02*
X47457142Y-71735885D01*
X47647619Y-71659695D02*
X47647619Y-70859695D01*
X47647619Y-70859695D02*
X47838095Y-70859695D01*
X47838095Y-70859695D02*
X47952381Y-70897790D01*
X47952381Y-70897790D02*
X48028571Y-70973980D01*
X48028571Y-70973980D02*
X48066666Y-71050171D01*
X48066666Y-71050171D02*
X48104762Y-71202552D01*
X48104762Y-71202552D02*
X48104762Y-71316838D01*
X48104762Y-71316838D02*
X48066666Y-71469219D01*
X48066666Y-71469219D02*
X48028571Y-71545409D01*
X48028571Y-71545409D02*
X47952381Y-71621600D01*
X47952381Y-71621600D02*
X47838095Y-71659695D01*
X47838095Y-71659695D02*
X47647619Y-71659695D01*
X48447619Y-71659695D02*
X48447619Y-70859695D01*
X49285714Y-71659695D02*
X49019047Y-71278742D01*
X48828571Y-71659695D02*
X48828571Y-70859695D01*
X48828571Y-70859695D02*
X49133333Y-70859695D01*
X49133333Y-70859695D02*
X49209523Y-70897790D01*
X49209523Y-70897790D02*
X49247618Y-70935885D01*
X49247618Y-70935885D02*
X49285714Y-71012076D01*
X49285714Y-71012076D02*
X49285714Y-71126361D01*
X49285714Y-71126361D02*
X49247618Y-71202552D01*
X49247618Y-71202552D02*
X49209523Y-71240647D01*
X49209523Y-71240647D02*
X49133333Y-71278742D01*
X49133333Y-71278742D02*
X48828571Y-71278742D01*
X51542857Y-71659695D02*
X51542857Y-70859695D01*
X51542857Y-70859695D02*
X51733333Y-70859695D01*
X51733333Y-70859695D02*
X51847619Y-70897790D01*
X51847619Y-70897790D02*
X51923809Y-70973980D01*
X51923809Y-70973980D02*
X51961904Y-71050171D01*
X51961904Y-71050171D02*
X52000000Y-71202552D01*
X52000000Y-71202552D02*
X52000000Y-71316838D01*
X52000000Y-71316838D02*
X51961904Y-71469219D01*
X51961904Y-71469219D02*
X51923809Y-71545409D01*
X51923809Y-71545409D02*
X51847619Y-71621600D01*
X51847619Y-71621600D02*
X51733333Y-71659695D01*
X51733333Y-71659695D02*
X51542857Y-71659695D01*
X52800000Y-71659695D02*
X52533333Y-71278742D01*
X52342857Y-71659695D02*
X52342857Y-70859695D01*
X52342857Y-70859695D02*
X52647619Y-70859695D01*
X52647619Y-70859695D02*
X52723809Y-70897790D01*
X52723809Y-70897790D02*
X52761904Y-70935885D01*
X52761904Y-70935885D02*
X52800000Y-71012076D01*
X52800000Y-71012076D02*
X52800000Y-71126361D01*
X52800000Y-71126361D02*
X52761904Y-71202552D01*
X52761904Y-71202552D02*
X52723809Y-71240647D01*
X52723809Y-71240647D02*
X52647619Y-71278742D01*
X52647619Y-71278742D02*
X52342857Y-71278742D01*
X53028571Y-70859695D02*
X53295238Y-71659695D01*
X53295238Y-71659695D02*
X53561904Y-70859695D01*
X53638095Y-71735885D02*
X54247618Y-71735885D01*
X54438095Y-71240647D02*
X54704761Y-71240647D01*
X54819047Y-71659695D02*
X54438095Y-71659695D01*
X54438095Y-71659695D02*
X54438095Y-70859695D01*
X54438095Y-70859695D02*
X54819047Y-70859695D01*
X55161905Y-71659695D02*
X55161905Y-70859695D01*
X55161905Y-70859695D02*
X55619048Y-71659695D01*
X55619048Y-71659695D02*
X55619048Y-70859695D01*
X56000000Y-71659695D02*
X56000000Y-70859695D01*
X56000000Y-70859695D02*
X56457143Y-71659695D01*
X56457143Y-71659695D02*
X56457143Y-70859695D01*
X55276190Y-77359695D02*
X55542857Y-78159695D01*
X55542857Y-78159695D02*
X55809523Y-77359695D01*
X56076190Y-78159695D02*
X56076190Y-77359695D01*
X56076190Y-77359695D02*
X56342856Y-77931123D01*
X56342856Y-77931123D02*
X56609523Y-77359695D01*
X56609523Y-77359695D02*
X56609523Y-78159695D01*
X59390476Y-77397790D02*
X59314286Y-77359695D01*
X59314286Y-77359695D02*
X59200000Y-77359695D01*
X59200000Y-77359695D02*
X59085714Y-77397790D01*
X59085714Y-77397790D02*
X59009524Y-77473980D01*
X59009524Y-77473980D02*
X58971429Y-77550171D01*
X58971429Y-77550171D02*
X58933333Y-77702552D01*
X58933333Y-77702552D02*
X58933333Y-77816838D01*
X58933333Y-77816838D02*
X58971429Y-77969219D01*
X58971429Y-77969219D02*
X59009524Y-78045409D01*
X59009524Y-78045409D02*
X59085714Y-78121600D01*
X59085714Y-78121600D02*
X59200000Y-78159695D01*
X59200000Y-78159695D02*
X59276191Y-78159695D01*
X59276191Y-78159695D02*
X59390476Y-78121600D01*
X59390476Y-78121600D02*
X59428572Y-78083504D01*
X59428572Y-78083504D02*
X59428572Y-77816838D01*
X59428572Y-77816838D02*
X59276191Y-77816838D01*
X59771429Y-78159695D02*
X59771429Y-77359695D01*
X59771429Y-77359695D02*
X60228572Y-78159695D01*
X60228572Y-78159695D02*
X60228572Y-77359695D01*
X60609524Y-78159695D02*
X60609524Y-77359695D01*
X60609524Y-77359695D02*
X60800000Y-77359695D01*
X60800000Y-77359695D02*
X60914286Y-77397790D01*
X60914286Y-77397790D02*
X60990476Y-77473980D01*
X60990476Y-77473980D02*
X61028571Y-77550171D01*
X61028571Y-77550171D02*
X61066667Y-77702552D01*
X61066667Y-77702552D02*
X61066667Y-77816838D01*
X61066667Y-77816838D02*
X61028571Y-77969219D01*
X61028571Y-77969219D02*
X60990476Y-78045409D01*
X60990476Y-78045409D02*
X60914286Y-78121600D01*
X60914286Y-78121600D02*
X60800000Y-78159695D01*
X60800000Y-78159695D02*
X60609524Y-78159695D01*
X58409524Y-71659695D02*
X58409524Y-70859695D01*
X58409524Y-70859695D02*
X58600000Y-70859695D01*
X58600000Y-70859695D02*
X58714286Y-70897790D01*
X58714286Y-70897790D02*
X58790476Y-70973980D01*
X58790476Y-70973980D02*
X58828571Y-71050171D01*
X58828571Y-71050171D02*
X58866667Y-71202552D01*
X58866667Y-71202552D02*
X58866667Y-71316838D01*
X58866667Y-71316838D02*
X58828571Y-71469219D01*
X58828571Y-71469219D02*
X58790476Y-71545409D01*
X58790476Y-71545409D02*
X58714286Y-71621600D01*
X58714286Y-71621600D02*
X58600000Y-71659695D01*
X58600000Y-71659695D02*
X58409524Y-71659695D01*
X59666667Y-71659695D02*
X59400000Y-71278742D01*
X59209524Y-71659695D02*
X59209524Y-70859695D01*
X59209524Y-70859695D02*
X59514286Y-70859695D01*
X59514286Y-70859695D02*
X59590476Y-70897790D01*
X59590476Y-70897790D02*
X59628571Y-70935885D01*
X59628571Y-70935885D02*
X59666667Y-71012076D01*
X59666667Y-71012076D02*
X59666667Y-71126361D01*
X59666667Y-71126361D02*
X59628571Y-71202552D01*
X59628571Y-71202552D02*
X59590476Y-71240647D01*
X59590476Y-71240647D02*
X59514286Y-71278742D01*
X59514286Y-71278742D02*
X59209524Y-71278742D01*
X59895238Y-70859695D02*
X60161905Y-71659695D01*
X60161905Y-71659695D02*
X60428571Y-70859695D01*
X60504762Y-71735885D02*
X61114285Y-71735885D01*
X61304762Y-71659695D02*
X61304762Y-70859695D01*
X61304762Y-70859695D02*
X61495238Y-70859695D01*
X61495238Y-70859695D02*
X61609524Y-70897790D01*
X61609524Y-70897790D02*
X61685714Y-70973980D01*
X61685714Y-70973980D02*
X61723809Y-71050171D01*
X61723809Y-71050171D02*
X61761905Y-71202552D01*
X61761905Y-71202552D02*
X61761905Y-71316838D01*
X61761905Y-71316838D02*
X61723809Y-71469219D01*
X61723809Y-71469219D02*
X61685714Y-71545409D01*
X61685714Y-71545409D02*
X61609524Y-71621600D01*
X61609524Y-71621600D02*
X61495238Y-71659695D01*
X61495238Y-71659695D02*
X61304762Y-71659695D01*
X62104762Y-71659695D02*
X62104762Y-70859695D01*
X62447618Y-71431123D02*
X62828571Y-71431123D01*
X62371428Y-71659695D02*
X62638095Y-70859695D01*
X62638095Y-70859695D02*
X62904761Y-71659695D01*
X63590475Y-70897790D02*
X63514285Y-70859695D01*
X63514285Y-70859695D02*
X63399999Y-70859695D01*
X63399999Y-70859695D02*
X63285713Y-70897790D01*
X63285713Y-70897790D02*
X63209523Y-70973980D01*
X63209523Y-70973980D02*
X63171428Y-71050171D01*
X63171428Y-71050171D02*
X63133332Y-71202552D01*
X63133332Y-71202552D02*
X63133332Y-71316838D01*
X63133332Y-71316838D02*
X63171428Y-71469219D01*
X63171428Y-71469219D02*
X63209523Y-71545409D01*
X63209523Y-71545409D02*
X63285713Y-71621600D01*
X63285713Y-71621600D02*
X63399999Y-71659695D01*
X63399999Y-71659695D02*
X63476190Y-71659695D01*
X63476190Y-71659695D02*
X63590475Y-71621600D01*
X63590475Y-71621600D02*
X63628571Y-71583504D01*
X63628571Y-71583504D02*
X63628571Y-71316838D01*
X63628571Y-71316838D02*
X63476190Y-71316838D01*
X63390476Y-74897790D02*
X63314286Y-74859695D01*
X63314286Y-74859695D02*
X63200000Y-74859695D01*
X63200000Y-74859695D02*
X63085714Y-74897790D01*
X63085714Y-74897790D02*
X63009524Y-74973980D01*
X63009524Y-74973980D02*
X62971429Y-75050171D01*
X62971429Y-75050171D02*
X62933333Y-75202552D01*
X62933333Y-75202552D02*
X62933333Y-75316838D01*
X62933333Y-75316838D02*
X62971429Y-75469219D01*
X62971429Y-75469219D02*
X63009524Y-75545409D01*
X63009524Y-75545409D02*
X63085714Y-75621600D01*
X63085714Y-75621600D02*
X63200000Y-75659695D01*
X63200000Y-75659695D02*
X63276191Y-75659695D01*
X63276191Y-75659695D02*
X63390476Y-75621600D01*
X63390476Y-75621600D02*
X63428572Y-75583504D01*
X63428572Y-75583504D02*
X63428572Y-75316838D01*
X63428572Y-75316838D02*
X63276191Y-75316838D01*
X63771429Y-75659695D02*
X63771429Y-74859695D01*
X63771429Y-74859695D02*
X64228572Y-75659695D01*
X64228572Y-75659695D02*
X64228572Y-74859695D01*
X64609524Y-75659695D02*
X64609524Y-74859695D01*
X64609524Y-74859695D02*
X64800000Y-74859695D01*
X64800000Y-74859695D02*
X64914286Y-74897790D01*
X64914286Y-74897790D02*
X64990476Y-74973980D01*
X64990476Y-74973980D02*
X65028571Y-75050171D01*
X65028571Y-75050171D02*
X65066667Y-75202552D01*
X65066667Y-75202552D02*
X65066667Y-75316838D01*
X65066667Y-75316838D02*
X65028571Y-75469219D01*
X65028571Y-75469219D02*
X64990476Y-75545409D01*
X64990476Y-75545409D02*
X64914286Y-75621600D01*
X64914286Y-75621600D02*
X64800000Y-75659695D01*
X64800000Y-75659695D02*
X64609524Y-75659695D01*
X65005356Y-78121600D02*
X65119642Y-78159695D01*
X65119642Y-78159695D02*
X65310118Y-78159695D01*
X65310118Y-78159695D02*
X65386309Y-78121600D01*
X65386309Y-78121600D02*
X65424404Y-78083504D01*
X65424404Y-78083504D02*
X65462499Y-78007314D01*
X65462499Y-78007314D02*
X65462499Y-77931123D01*
X65462499Y-77931123D02*
X65424404Y-77854933D01*
X65424404Y-77854933D02*
X65386309Y-77816838D01*
X65386309Y-77816838D02*
X65310118Y-77778742D01*
X65310118Y-77778742D02*
X65157737Y-77740647D01*
X65157737Y-77740647D02*
X65081547Y-77702552D01*
X65081547Y-77702552D02*
X65043452Y-77664457D01*
X65043452Y-77664457D02*
X65005356Y-77588266D01*
X65005356Y-77588266D02*
X65005356Y-77512076D01*
X65005356Y-77512076D02*
X65043452Y-77435885D01*
X65043452Y-77435885D02*
X65081547Y-77397790D01*
X65081547Y-77397790D02*
X65157737Y-77359695D01*
X65157737Y-77359695D02*
X65348214Y-77359695D01*
X65348214Y-77359695D02*
X65462499Y-77397790D01*
X65805357Y-77740647D02*
X66072023Y-77740647D01*
X66186309Y-78159695D02*
X65805357Y-78159695D01*
X65805357Y-78159695D02*
X65805357Y-77359695D01*
X65805357Y-77359695D02*
X66186309Y-77359695D01*
X66529167Y-78159695D02*
X66529167Y-77359695D01*
X66529167Y-77359695D02*
X66986310Y-78159695D01*
X66986310Y-78159695D02*
X66986310Y-77359695D01*
X67329166Y-78121600D02*
X67443452Y-78159695D01*
X67443452Y-78159695D02*
X67633928Y-78159695D01*
X67633928Y-78159695D02*
X67710119Y-78121600D01*
X67710119Y-78121600D02*
X67748214Y-78083504D01*
X67748214Y-78083504D02*
X67786309Y-78007314D01*
X67786309Y-78007314D02*
X67786309Y-77931123D01*
X67786309Y-77931123D02*
X67748214Y-77854933D01*
X67748214Y-77854933D02*
X67710119Y-77816838D01*
X67710119Y-77816838D02*
X67633928Y-77778742D01*
X67633928Y-77778742D02*
X67481547Y-77740647D01*
X67481547Y-77740647D02*
X67405357Y-77702552D01*
X67405357Y-77702552D02*
X67367262Y-77664457D01*
X67367262Y-77664457D02*
X67329166Y-77588266D01*
X67329166Y-77588266D02*
X67329166Y-77512076D01*
X67329166Y-77512076D02*
X67367262Y-77435885D01*
X67367262Y-77435885D02*
X67405357Y-77397790D01*
X67405357Y-77397790D02*
X67481547Y-77359695D01*
X67481547Y-77359695D02*
X67672024Y-77359695D01*
X67672024Y-77359695D02*
X67786309Y-77397790D01*
X68129167Y-77740647D02*
X68395833Y-77740647D01*
X68510119Y-78159695D02*
X68129167Y-78159695D01*
X68129167Y-78159695D02*
X68129167Y-77359695D01*
X68129167Y-77359695D02*
X68510119Y-77359695D01*
X68662501Y-78235885D02*
X69272024Y-78235885D01*
X69729167Y-77740647D02*
X69843453Y-77778742D01*
X69843453Y-77778742D02*
X69881548Y-77816838D01*
X69881548Y-77816838D02*
X69919644Y-77893028D01*
X69919644Y-77893028D02*
X69919644Y-78007314D01*
X69919644Y-78007314D02*
X69881548Y-78083504D01*
X69881548Y-78083504D02*
X69843453Y-78121600D01*
X69843453Y-78121600D02*
X69767263Y-78159695D01*
X69767263Y-78159695D02*
X69462501Y-78159695D01*
X69462501Y-78159695D02*
X69462501Y-77359695D01*
X69462501Y-77359695D02*
X69729167Y-77359695D01*
X69729167Y-77359695D02*
X69805358Y-77397790D01*
X69805358Y-77397790D02*
X69843453Y-77435885D01*
X69843453Y-77435885D02*
X69881548Y-77512076D01*
X69881548Y-77512076D02*
X69881548Y-77588266D01*
X69881548Y-77588266D02*
X69843453Y-77664457D01*
X69843453Y-77664457D02*
X69805358Y-77702552D01*
X69805358Y-77702552D02*
X69729167Y-77740647D01*
X69729167Y-77740647D02*
X69462501Y-77740647D01*
X83927976Y-74397790D02*
X83851786Y-74359695D01*
X83851786Y-74359695D02*
X83737500Y-74359695D01*
X83737500Y-74359695D02*
X83623214Y-74397790D01*
X83623214Y-74397790D02*
X83547024Y-74473980D01*
X83547024Y-74473980D02*
X83508929Y-74550171D01*
X83508929Y-74550171D02*
X83470833Y-74702552D01*
X83470833Y-74702552D02*
X83470833Y-74816838D01*
X83470833Y-74816838D02*
X83508929Y-74969219D01*
X83508929Y-74969219D02*
X83547024Y-75045409D01*
X83547024Y-75045409D02*
X83623214Y-75121600D01*
X83623214Y-75121600D02*
X83737500Y-75159695D01*
X83737500Y-75159695D02*
X83813691Y-75159695D01*
X83813691Y-75159695D02*
X83927976Y-75121600D01*
X83927976Y-75121600D02*
X83966072Y-75083504D01*
X83966072Y-75083504D02*
X83966072Y-74816838D01*
X83966072Y-74816838D02*
X83813691Y-74816838D01*
X84308929Y-75159695D02*
X84308929Y-74359695D01*
X84308929Y-74359695D02*
X84766072Y-75159695D01*
X84766072Y-75159695D02*
X84766072Y-74359695D01*
X85147024Y-75159695D02*
X85147024Y-74359695D01*
X85147024Y-74359695D02*
X85337500Y-74359695D01*
X85337500Y-74359695D02*
X85451786Y-74397790D01*
X85451786Y-74397790D02*
X85527976Y-74473980D01*
X85527976Y-74473980D02*
X85566071Y-74550171D01*
X85566071Y-74550171D02*
X85604167Y-74702552D01*
X85604167Y-74702552D02*
X85604167Y-74816838D01*
X85604167Y-74816838D02*
X85566071Y-74969219D01*
X85566071Y-74969219D02*
X85527976Y-75045409D01*
X85527976Y-75045409D02*
X85451786Y-75121600D01*
X85451786Y-75121600D02*
X85337500Y-75159695D01*
X85337500Y-75159695D02*
X85147024Y-75159695D01*
X82137499Y-78121600D02*
X82251785Y-78159695D01*
X82251785Y-78159695D02*
X82442261Y-78159695D01*
X82442261Y-78159695D02*
X82518452Y-78121600D01*
X82518452Y-78121600D02*
X82556547Y-78083504D01*
X82556547Y-78083504D02*
X82594642Y-78007314D01*
X82594642Y-78007314D02*
X82594642Y-77931123D01*
X82594642Y-77931123D02*
X82556547Y-77854933D01*
X82556547Y-77854933D02*
X82518452Y-77816838D01*
X82518452Y-77816838D02*
X82442261Y-77778742D01*
X82442261Y-77778742D02*
X82289880Y-77740647D01*
X82289880Y-77740647D02*
X82213690Y-77702552D01*
X82213690Y-77702552D02*
X82175595Y-77664457D01*
X82175595Y-77664457D02*
X82137499Y-77588266D01*
X82137499Y-77588266D02*
X82137499Y-77512076D01*
X82137499Y-77512076D02*
X82175595Y-77435885D01*
X82175595Y-77435885D02*
X82213690Y-77397790D01*
X82213690Y-77397790D02*
X82289880Y-77359695D01*
X82289880Y-77359695D02*
X82480357Y-77359695D01*
X82480357Y-77359695D02*
X82594642Y-77397790D01*
X82937500Y-77740647D02*
X83204166Y-77740647D01*
X83318452Y-78159695D02*
X82937500Y-78159695D01*
X82937500Y-78159695D02*
X82937500Y-77359695D01*
X82937500Y-77359695D02*
X83318452Y-77359695D01*
X83661310Y-78159695D02*
X83661310Y-77359695D01*
X83661310Y-77359695D02*
X84118453Y-78159695D01*
X84118453Y-78159695D02*
X84118453Y-77359695D01*
X84461309Y-78121600D02*
X84575595Y-78159695D01*
X84575595Y-78159695D02*
X84766071Y-78159695D01*
X84766071Y-78159695D02*
X84842262Y-78121600D01*
X84842262Y-78121600D02*
X84880357Y-78083504D01*
X84880357Y-78083504D02*
X84918452Y-78007314D01*
X84918452Y-78007314D02*
X84918452Y-77931123D01*
X84918452Y-77931123D02*
X84880357Y-77854933D01*
X84880357Y-77854933D02*
X84842262Y-77816838D01*
X84842262Y-77816838D02*
X84766071Y-77778742D01*
X84766071Y-77778742D02*
X84613690Y-77740647D01*
X84613690Y-77740647D02*
X84537500Y-77702552D01*
X84537500Y-77702552D02*
X84499405Y-77664457D01*
X84499405Y-77664457D02*
X84461309Y-77588266D01*
X84461309Y-77588266D02*
X84461309Y-77512076D01*
X84461309Y-77512076D02*
X84499405Y-77435885D01*
X84499405Y-77435885D02*
X84537500Y-77397790D01*
X84537500Y-77397790D02*
X84613690Y-77359695D01*
X84613690Y-77359695D02*
X84804167Y-77359695D01*
X84804167Y-77359695D02*
X84918452Y-77397790D01*
X85261310Y-77740647D02*
X85527976Y-77740647D01*
X85642262Y-78159695D02*
X85261310Y-78159695D01*
X85261310Y-78159695D02*
X85261310Y-77359695D01*
X85261310Y-77359695D02*
X85642262Y-77359695D01*
X85794644Y-78235885D02*
X86404167Y-78235885D01*
X86556548Y-77931123D02*
X86937501Y-77931123D01*
X86480358Y-78159695D02*
X86747025Y-77359695D01*
X86747025Y-77359695D02*
X87013691Y-78159695D01*
X83914285Y-46421600D02*
X84028571Y-46459695D01*
X84028571Y-46459695D02*
X84219047Y-46459695D01*
X84219047Y-46459695D02*
X84295238Y-46421600D01*
X84295238Y-46421600D02*
X84333333Y-46383504D01*
X84333333Y-46383504D02*
X84371428Y-46307314D01*
X84371428Y-46307314D02*
X84371428Y-46231123D01*
X84371428Y-46231123D02*
X84333333Y-46154933D01*
X84333333Y-46154933D02*
X84295238Y-46116838D01*
X84295238Y-46116838D02*
X84219047Y-46078742D01*
X84219047Y-46078742D02*
X84066666Y-46040647D01*
X84066666Y-46040647D02*
X83990476Y-46002552D01*
X83990476Y-46002552D02*
X83952381Y-45964457D01*
X83952381Y-45964457D02*
X83914285Y-45888266D01*
X83914285Y-45888266D02*
X83914285Y-45812076D01*
X83914285Y-45812076D02*
X83952381Y-45735885D01*
X83952381Y-45735885D02*
X83990476Y-45697790D01*
X83990476Y-45697790D02*
X84066666Y-45659695D01*
X84066666Y-45659695D02*
X84257143Y-45659695D01*
X84257143Y-45659695D02*
X84371428Y-45697790D01*
X84638095Y-45659695D02*
X84828571Y-46459695D01*
X84828571Y-46459695D02*
X84980952Y-45888266D01*
X84980952Y-45888266D02*
X85133333Y-46459695D01*
X85133333Y-46459695D02*
X85323810Y-45659695D01*
X85628572Y-46459695D02*
X85628572Y-45659695D01*
X85628572Y-45659695D02*
X85819048Y-45659695D01*
X85819048Y-45659695D02*
X85933334Y-45697790D01*
X85933334Y-45697790D02*
X86009524Y-45773980D01*
X86009524Y-45773980D02*
X86047619Y-45850171D01*
X86047619Y-45850171D02*
X86085715Y-46002552D01*
X86085715Y-46002552D02*
X86085715Y-46116838D01*
X86085715Y-46116838D02*
X86047619Y-46269219D01*
X86047619Y-46269219D02*
X86009524Y-46345409D01*
X86009524Y-46345409D02*
X85933334Y-46421600D01*
X85933334Y-46421600D02*
X85819048Y-46459695D01*
X85819048Y-46459695D02*
X85628572Y-46459695D01*
X91219048Y-46383504D02*
X91180952Y-46421600D01*
X91180952Y-46421600D02*
X91066667Y-46459695D01*
X91066667Y-46459695D02*
X90990476Y-46459695D01*
X90990476Y-46459695D02*
X90876190Y-46421600D01*
X90876190Y-46421600D02*
X90800000Y-46345409D01*
X90800000Y-46345409D02*
X90761905Y-46269219D01*
X90761905Y-46269219D02*
X90723809Y-46116838D01*
X90723809Y-46116838D02*
X90723809Y-46002552D01*
X90723809Y-46002552D02*
X90761905Y-45850171D01*
X90761905Y-45850171D02*
X90800000Y-45773980D01*
X90800000Y-45773980D02*
X90876190Y-45697790D01*
X90876190Y-45697790D02*
X90990476Y-45659695D01*
X90990476Y-45659695D02*
X91066667Y-45659695D01*
X91066667Y-45659695D02*
X91180952Y-45697790D01*
X91180952Y-45697790D02*
X91219048Y-45735885D01*
X91447619Y-45659695D02*
X91904762Y-45659695D01*
X91676190Y-46459695D02*
X91676190Y-45659695D01*
X92628572Y-46459695D02*
X92361905Y-46078742D01*
X92171429Y-46459695D02*
X92171429Y-45659695D01*
X92171429Y-45659695D02*
X92476191Y-45659695D01*
X92476191Y-45659695D02*
X92552381Y-45697790D01*
X92552381Y-45697790D02*
X92590476Y-45735885D01*
X92590476Y-45735885D02*
X92628572Y-45812076D01*
X92628572Y-45812076D02*
X92628572Y-45926361D01*
X92628572Y-45926361D02*
X92590476Y-46002552D01*
X92590476Y-46002552D02*
X92552381Y-46040647D01*
X92552381Y-46040647D02*
X92476191Y-46078742D01*
X92476191Y-46078742D02*
X92171429Y-46078742D01*
X93352381Y-46459695D02*
X92971429Y-46459695D01*
X92971429Y-46459695D02*
X92971429Y-45659695D01*
X98504762Y-46383504D02*
X98466666Y-46421600D01*
X98466666Y-46421600D02*
X98352381Y-46459695D01*
X98352381Y-46459695D02*
X98276190Y-46459695D01*
X98276190Y-46459695D02*
X98161904Y-46421600D01*
X98161904Y-46421600D02*
X98085714Y-46345409D01*
X98085714Y-46345409D02*
X98047619Y-46269219D01*
X98047619Y-46269219D02*
X98009523Y-46116838D01*
X98009523Y-46116838D02*
X98009523Y-46002552D01*
X98009523Y-46002552D02*
X98047619Y-45850171D01*
X98047619Y-45850171D02*
X98085714Y-45773980D01*
X98085714Y-45773980D02*
X98161904Y-45697790D01*
X98161904Y-45697790D02*
X98276190Y-45659695D01*
X98276190Y-45659695D02*
X98352381Y-45659695D01*
X98352381Y-45659695D02*
X98466666Y-45697790D01*
X98466666Y-45697790D02*
X98504762Y-45735885D01*
X99114285Y-46040647D02*
X98847619Y-46040647D01*
X98847619Y-46459695D02*
X98847619Y-45659695D01*
X98847619Y-45659695D02*
X99228571Y-45659695D01*
X99952380Y-45697790D02*
X99876190Y-45659695D01*
X99876190Y-45659695D02*
X99761904Y-45659695D01*
X99761904Y-45659695D02*
X99647618Y-45697790D01*
X99647618Y-45697790D02*
X99571428Y-45773980D01*
X99571428Y-45773980D02*
X99533333Y-45850171D01*
X99533333Y-45850171D02*
X99495237Y-46002552D01*
X99495237Y-46002552D02*
X99495237Y-46116838D01*
X99495237Y-46116838D02*
X99533333Y-46269219D01*
X99533333Y-46269219D02*
X99571428Y-46345409D01*
X99571428Y-46345409D02*
X99647618Y-46421600D01*
X99647618Y-46421600D02*
X99761904Y-46459695D01*
X99761904Y-46459695D02*
X99838095Y-46459695D01*
X99838095Y-46459695D02*
X99952380Y-46421600D01*
X99952380Y-46421600D02*
X99990476Y-46383504D01*
X99990476Y-46383504D02*
X99990476Y-46116838D01*
X99990476Y-46116838D02*
X99838095Y-46116838D01*
X105390476Y-78897790D02*
X105314286Y-78859695D01*
X105314286Y-78859695D02*
X105200000Y-78859695D01*
X105200000Y-78859695D02*
X105085714Y-78897790D01*
X105085714Y-78897790D02*
X105009524Y-78973980D01*
X105009524Y-78973980D02*
X104971429Y-79050171D01*
X104971429Y-79050171D02*
X104933333Y-79202552D01*
X104933333Y-79202552D02*
X104933333Y-79316838D01*
X104933333Y-79316838D02*
X104971429Y-79469219D01*
X104971429Y-79469219D02*
X105009524Y-79545409D01*
X105009524Y-79545409D02*
X105085714Y-79621600D01*
X105085714Y-79621600D02*
X105200000Y-79659695D01*
X105200000Y-79659695D02*
X105276191Y-79659695D01*
X105276191Y-79659695D02*
X105390476Y-79621600D01*
X105390476Y-79621600D02*
X105428572Y-79583504D01*
X105428572Y-79583504D02*
X105428572Y-79316838D01*
X105428572Y-79316838D02*
X105276191Y-79316838D01*
X105771429Y-79659695D02*
X105771429Y-78859695D01*
X105771429Y-78859695D02*
X106228572Y-79659695D01*
X106228572Y-79659695D02*
X106228572Y-78859695D01*
X106609524Y-79659695D02*
X106609524Y-78859695D01*
X106609524Y-78859695D02*
X106800000Y-78859695D01*
X106800000Y-78859695D02*
X106914286Y-78897790D01*
X106914286Y-78897790D02*
X106990476Y-78973980D01*
X106990476Y-78973980D02*
X107028571Y-79050171D01*
X107028571Y-79050171D02*
X107066667Y-79202552D01*
X107066667Y-79202552D02*
X107066667Y-79316838D01*
X107066667Y-79316838D02*
X107028571Y-79469219D01*
X107028571Y-79469219D02*
X106990476Y-79545409D01*
X106990476Y-79545409D02*
X106914286Y-79621600D01*
X106914286Y-79621600D02*
X106800000Y-79659695D01*
X106800000Y-79659695D02*
X106609524Y-79659695D01*
X104590476Y-83354933D02*
X105200000Y-83354933D01*
X104895238Y-83659695D02*
X104895238Y-83050171D01*
X105504761Y-82859695D02*
X105999999Y-82859695D01*
X105999999Y-82859695D02*
X105733333Y-83164457D01*
X105733333Y-83164457D02*
X105847618Y-83164457D01*
X105847618Y-83164457D02*
X105923809Y-83202552D01*
X105923809Y-83202552D02*
X105961904Y-83240647D01*
X105961904Y-83240647D02*
X105999999Y-83316838D01*
X105999999Y-83316838D02*
X105999999Y-83507314D01*
X105999999Y-83507314D02*
X105961904Y-83583504D01*
X105961904Y-83583504D02*
X105923809Y-83621600D01*
X105923809Y-83621600D02*
X105847618Y-83659695D01*
X105847618Y-83659695D02*
X105619047Y-83659695D01*
X105619047Y-83659695D02*
X105542856Y-83621600D01*
X105542856Y-83621600D02*
X105504761Y-83583504D01*
X106228571Y-82859695D02*
X106495238Y-83659695D01*
X106495238Y-83659695D02*
X106761904Y-82859695D01*
X106952380Y-82859695D02*
X107447618Y-82859695D01*
X107447618Y-82859695D02*
X107180952Y-83164457D01*
X107180952Y-83164457D02*
X107295237Y-83164457D01*
X107295237Y-83164457D02*
X107371428Y-83202552D01*
X107371428Y-83202552D02*
X107409523Y-83240647D01*
X107409523Y-83240647D02*
X107447618Y-83316838D01*
X107447618Y-83316838D02*
X107447618Y-83507314D01*
X107447618Y-83507314D02*
X107409523Y-83583504D01*
X107409523Y-83583504D02*
X107371428Y-83621600D01*
X107371428Y-83621600D02*
X107295237Y-83659695D01*
X107295237Y-83659695D02*
X107066666Y-83659695D01*
X107066666Y-83659695D02*
X106990475Y-83621600D01*
X106990475Y-83621600D02*
X106952380Y-83583504D01*
X75897142Y-63305957D02*
X75897142Y-63905957D01*
X75682856Y-62963100D02*
X75468570Y-63605957D01*
X75468570Y-63605957D02*
X76025713Y-63605957D01*
X76668570Y-63434528D02*
X76797142Y-63477385D01*
X76797142Y-63477385D02*
X76839999Y-63520242D01*
X76839999Y-63520242D02*
X76882856Y-63605957D01*
X76882856Y-63605957D02*
X76882856Y-63734528D01*
X76882856Y-63734528D02*
X76839999Y-63820242D01*
X76839999Y-63820242D02*
X76797142Y-63863100D01*
X76797142Y-63863100D02*
X76711427Y-63905957D01*
X76711427Y-63905957D02*
X76368570Y-63905957D01*
X76368570Y-63905957D02*
X76368570Y-63005957D01*
X76368570Y-63005957D02*
X76668570Y-63005957D01*
X76668570Y-63005957D02*
X76754285Y-63048814D01*
X76754285Y-63048814D02*
X76797142Y-63091671D01*
X76797142Y-63091671D02*
X76839999Y-63177385D01*
X76839999Y-63177385D02*
X76839999Y-63263100D01*
X76839999Y-63263100D02*
X76797142Y-63348814D01*
X76797142Y-63348814D02*
X76754285Y-63391671D01*
X76754285Y-63391671D02*
X76668570Y-63434528D01*
X76668570Y-63434528D02*
X76368570Y-63434528D01*
X77268570Y-63563100D02*
X77954285Y-63563100D01*
X78982856Y-63005957D02*
X79539999Y-63005957D01*
X79539999Y-63005957D02*
X79239999Y-63348814D01*
X79239999Y-63348814D02*
X79368570Y-63348814D01*
X79368570Y-63348814D02*
X79454285Y-63391671D01*
X79454285Y-63391671D02*
X79497142Y-63434528D01*
X79497142Y-63434528D02*
X79539999Y-63520242D01*
X79539999Y-63520242D02*
X79539999Y-63734528D01*
X79539999Y-63734528D02*
X79497142Y-63820242D01*
X79497142Y-63820242D02*
X79454285Y-63863100D01*
X79454285Y-63863100D02*
X79368570Y-63905957D01*
X79368570Y-63905957D02*
X79111427Y-63905957D01*
X79111427Y-63905957D02*
X79025713Y-63863100D01*
X79025713Y-63863100D02*
X78982856Y-63820242D01*
X80225713Y-63434528D02*
X80354285Y-63477385D01*
X80354285Y-63477385D02*
X80397142Y-63520242D01*
X80397142Y-63520242D02*
X80439999Y-63605957D01*
X80439999Y-63605957D02*
X80439999Y-63734528D01*
X80439999Y-63734528D02*
X80397142Y-63820242D01*
X80397142Y-63820242D02*
X80354285Y-63863100D01*
X80354285Y-63863100D02*
X80268570Y-63905957D01*
X80268570Y-63905957D02*
X79925713Y-63905957D01*
X79925713Y-63905957D02*
X79925713Y-63005957D01*
X79925713Y-63005957D02*
X80225713Y-63005957D01*
X80225713Y-63005957D02*
X80311428Y-63048814D01*
X80311428Y-63048814D02*
X80354285Y-63091671D01*
X80354285Y-63091671D02*
X80397142Y-63177385D01*
X80397142Y-63177385D02*
X80397142Y-63263100D01*
X80397142Y-63263100D02*
X80354285Y-63348814D01*
X80354285Y-63348814D02*
X80311428Y-63391671D01*
X80311428Y-63391671D02*
X80225713Y-63434528D01*
X80225713Y-63434528D02*
X79925713Y-63434528D01*
X80825713Y-63563100D02*
X81511428Y-63563100D01*
X81168570Y-63905957D02*
X81168570Y-63220242D01*
X82582856Y-63091671D02*
X82625713Y-63048814D01*
X82625713Y-63048814D02*
X82711428Y-63005957D01*
X82711428Y-63005957D02*
X82925713Y-63005957D01*
X82925713Y-63005957D02*
X83011428Y-63048814D01*
X83011428Y-63048814D02*
X83054285Y-63091671D01*
X83054285Y-63091671D02*
X83097142Y-63177385D01*
X83097142Y-63177385D02*
X83097142Y-63263100D01*
X83097142Y-63263100D02*
X83054285Y-63391671D01*
X83054285Y-63391671D02*
X82539999Y-63905957D01*
X82539999Y-63905957D02*
X83097142Y-63905957D01*
X83439999Y-63648814D02*
X83868571Y-63648814D01*
X83354285Y-63905957D02*
X83654285Y-63005957D01*
X83654285Y-63005957D02*
X83954285Y-63905957D01*
X84254285Y-63563100D02*
X84940000Y-63563100D01*
X86525714Y-63905957D02*
X86011428Y-63905957D01*
X86268571Y-63905957D02*
X86268571Y-63005957D01*
X86268571Y-63005957D02*
X86182857Y-63134528D01*
X86182857Y-63134528D02*
X86097142Y-63220242D01*
X86097142Y-63220242D02*
X86011428Y-63263100D01*
X86868571Y-63648814D02*
X87297143Y-63648814D01*
X86782857Y-63905957D02*
X87082857Y-63005957D01*
X87082857Y-63005957D02*
X87382857Y-63905957D01*
X87682857Y-63563100D02*
X88368572Y-63563100D01*
X88025714Y-63905957D02*
X88025714Y-63220242D01*
X34809523Y-76452219D02*
X34238095Y-76452219D01*
X34523809Y-76452219D02*
X34523809Y-75452219D01*
X34523809Y-75452219D02*
X34428571Y-75595076D01*
X34428571Y-75595076D02*
X34333333Y-75690314D01*
X34333333Y-75690314D02*
X34238095Y-75737933D01*
X35190476Y-75547457D02*
X35238095Y-75499838D01*
X35238095Y-75499838D02*
X35333333Y-75452219D01*
X35333333Y-75452219D02*
X35571428Y-75452219D01*
X35571428Y-75452219D02*
X35666666Y-75499838D01*
X35666666Y-75499838D02*
X35714285Y-75547457D01*
X35714285Y-75547457D02*
X35761904Y-75642695D01*
X35761904Y-75642695D02*
X35761904Y-75737933D01*
X35761904Y-75737933D02*
X35714285Y-75880790D01*
X35714285Y-75880790D02*
X35142857Y-76452219D01*
X35142857Y-76452219D02*
X35761904Y-76452219D01*
X36190476Y-76071266D02*
X36952381Y-76071266D01*
X37380952Y-75547457D02*
X37428571Y-75499838D01*
X37428571Y-75499838D02*
X37523809Y-75452219D01*
X37523809Y-75452219D02*
X37761904Y-75452219D01*
X37761904Y-75452219D02*
X37857142Y-75499838D01*
X37857142Y-75499838D02*
X37904761Y-75547457D01*
X37904761Y-75547457D02*
X37952380Y-75642695D01*
X37952380Y-75642695D02*
X37952380Y-75737933D01*
X37952380Y-75737933D02*
X37904761Y-75880790D01*
X37904761Y-75880790D02*
X37333333Y-76452219D01*
X37333333Y-76452219D02*
X37952380Y-76452219D01*
X38809523Y-75785552D02*
X38809523Y-76452219D01*
X38571428Y-75404600D02*
X38333333Y-76118885D01*
X38333333Y-76118885D02*
X38952380Y-76118885D01*
X39190476Y-75452219D02*
X39523809Y-76452219D01*
X39523809Y-76452219D02*
X39857142Y-75452219D01*
X57619046Y-107952219D02*
X57047618Y-107952219D01*
X57333332Y-107952219D02*
X57333332Y-106952219D01*
X57333332Y-106952219D02*
X57238094Y-107095076D01*
X57238094Y-107095076D02*
X57142856Y-107190314D01*
X57142856Y-107190314D02*
X57047618Y-107237933D01*
X57999999Y-107047457D02*
X58047618Y-106999838D01*
X58047618Y-106999838D02*
X58142856Y-106952219D01*
X58142856Y-106952219D02*
X58380951Y-106952219D01*
X58380951Y-106952219D02*
X58476189Y-106999838D01*
X58476189Y-106999838D02*
X58523808Y-107047457D01*
X58523808Y-107047457D02*
X58571427Y-107142695D01*
X58571427Y-107142695D02*
X58571427Y-107237933D01*
X58571427Y-107237933D02*
X58523808Y-107380790D01*
X58523808Y-107380790D02*
X57952380Y-107952219D01*
X57952380Y-107952219D02*
X58571427Y-107952219D01*
X58999999Y-107571266D02*
X59761904Y-107571266D01*
X60190475Y-107047457D02*
X60238094Y-106999838D01*
X60238094Y-106999838D02*
X60333332Y-106952219D01*
X60333332Y-106952219D02*
X60571427Y-106952219D01*
X60571427Y-106952219D02*
X60666665Y-106999838D01*
X60666665Y-106999838D02*
X60714284Y-107047457D01*
X60714284Y-107047457D02*
X60761903Y-107142695D01*
X60761903Y-107142695D02*
X60761903Y-107237933D01*
X60761903Y-107237933D02*
X60714284Y-107380790D01*
X60714284Y-107380790D02*
X60142856Y-107952219D01*
X60142856Y-107952219D02*
X60761903Y-107952219D01*
X61619046Y-107285552D02*
X61619046Y-107952219D01*
X61380951Y-106904600D02*
X61142856Y-107618885D01*
X61142856Y-107618885D02*
X61761903Y-107618885D01*
X61999999Y-106952219D02*
X62333332Y-107952219D01*
X62333332Y-107952219D02*
X62666665Y-106952219D01*
X64476190Y-107047457D02*
X64523809Y-106999838D01*
X64523809Y-106999838D02*
X64619047Y-106952219D01*
X64619047Y-106952219D02*
X64857142Y-106952219D01*
X64857142Y-106952219D02*
X64952380Y-106999838D01*
X64952380Y-106999838D02*
X64999999Y-107047457D01*
X64999999Y-107047457D02*
X65047618Y-107142695D01*
X65047618Y-107142695D02*
X65047618Y-107237933D01*
X65047618Y-107237933D02*
X64999999Y-107380790D01*
X64999999Y-107380790D02*
X64428571Y-107952219D01*
X64428571Y-107952219D02*
X65047618Y-107952219D01*
X65428571Y-107666504D02*
X65904761Y-107666504D01*
X65333333Y-107952219D02*
X65666666Y-106952219D01*
X65666666Y-106952219D02*
X65999999Y-107952219D01*
X67095238Y-107952219D02*
X67095238Y-106952219D01*
X67095238Y-106952219D02*
X67428571Y-107666504D01*
X67428571Y-107666504D02*
X67761904Y-106952219D01*
X67761904Y-106952219D02*
X67761904Y-107952219D01*
X68190476Y-107666504D02*
X68666666Y-107666504D01*
X68095238Y-107952219D02*
X68428571Y-106952219D01*
X68428571Y-106952219D02*
X68761904Y-107952219D01*
X69000000Y-106952219D02*
X69666666Y-107952219D01*
X69666666Y-106952219D02*
X69000000Y-107952219D01*
X72095238Y-107952219D02*
X71523810Y-107952219D01*
X71809524Y-107952219D02*
X71809524Y-106952219D01*
X71809524Y-106952219D02*
X71714286Y-107095076D01*
X71714286Y-107095076D02*
X71619048Y-107190314D01*
X71619048Y-107190314D02*
X71523810Y-107237933D01*
X72523810Y-107856980D02*
X72571429Y-107904600D01*
X72571429Y-107904600D02*
X72523810Y-107952219D01*
X72523810Y-107952219D02*
X72476191Y-107904600D01*
X72476191Y-107904600D02*
X72523810Y-107856980D01*
X72523810Y-107856980D02*
X72523810Y-107952219D01*
X73476190Y-106952219D02*
X73000000Y-106952219D01*
X73000000Y-106952219D02*
X72952381Y-107428409D01*
X72952381Y-107428409D02*
X73000000Y-107380790D01*
X73000000Y-107380790D02*
X73095238Y-107333171D01*
X73095238Y-107333171D02*
X73333333Y-107333171D01*
X73333333Y-107333171D02*
X73428571Y-107380790D01*
X73428571Y-107380790D02*
X73476190Y-107428409D01*
X73476190Y-107428409D02*
X73523809Y-107523647D01*
X73523809Y-107523647D02*
X73523809Y-107761742D01*
X73523809Y-107761742D02*
X73476190Y-107856980D01*
X73476190Y-107856980D02*
X73428571Y-107904600D01*
X73428571Y-107904600D02*
X73333333Y-107952219D01*
X73333333Y-107952219D02*
X73095238Y-107952219D01*
X73095238Y-107952219D02*
X73000000Y-107904600D01*
X73000000Y-107904600D02*
X72952381Y-107856980D01*
X73904762Y-107666504D02*
X74380952Y-107666504D01*
X73809524Y-107952219D02*
X74142857Y-106952219D01*
X74142857Y-106952219D02*
X74476190Y-107952219D01*
X74809524Y-107952219D02*
X74809524Y-107285552D01*
X74809524Y-107476028D02*
X74857143Y-107380790D01*
X74857143Y-107380790D02*
X74904762Y-107333171D01*
X74904762Y-107333171D02*
X75000000Y-107285552D01*
X75000000Y-107285552D02*
X75095238Y-107285552D01*
X75428572Y-107952219D02*
X75428572Y-107285552D01*
X75428572Y-107380790D02*
X75476191Y-107333171D01*
X75476191Y-107333171D02*
X75571429Y-107285552D01*
X75571429Y-107285552D02*
X75714286Y-107285552D01*
X75714286Y-107285552D02*
X75809524Y-107333171D01*
X75809524Y-107333171D02*
X75857143Y-107428409D01*
X75857143Y-107428409D02*
X75857143Y-107952219D01*
X75857143Y-107428409D02*
X75904762Y-107333171D01*
X75904762Y-107333171D02*
X76000000Y-107285552D01*
X76000000Y-107285552D02*
X76142857Y-107285552D01*
X76142857Y-107285552D02*
X76238096Y-107333171D01*
X76238096Y-107333171D02*
X76285715Y-107428409D01*
X76285715Y-107428409D02*
X76285715Y-107952219D01*
X76714286Y-107904600D02*
X76809524Y-107952219D01*
X76809524Y-107952219D02*
X77000000Y-107952219D01*
X77000000Y-107952219D02*
X77095238Y-107904600D01*
X77095238Y-107904600D02*
X77142857Y-107809361D01*
X77142857Y-107809361D02*
X77142857Y-107761742D01*
X77142857Y-107761742D02*
X77095238Y-107666504D01*
X77095238Y-107666504D02*
X77000000Y-107618885D01*
X77000000Y-107618885D02*
X76857143Y-107618885D01*
X76857143Y-107618885D02*
X76761905Y-107571266D01*
X76761905Y-107571266D02*
X76714286Y-107476028D01*
X76714286Y-107476028D02*
X76714286Y-107428409D01*
X76714286Y-107428409D02*
X76761905Y-107333171D01*
X76761905Y-107333171D02*
X76857143Y-107285552D01*
X76857143Y-107285552D02*
X77000000Y-107285552D01*
X77000000Y-107285552D02*
X77095238Y-107333171D01*
X78285714Y-106904600D02*
X77428572Y-108190314D01*
X78619048Y-107952219D02*
X78619048Y-106952219D01*
X78619048Y-106952219D02*
X79000000Y-106952219D01*
X79000000Y-106952219D02*
X79095238Y-106999838D01*
X79095238Y-106999838D02*
X79142857Y-107047457D01*
X79142857Y-107047457D02*
X79190476Y-107142695D01*
X79190476Y-107142695D02*
X79190476Y-107285552D01*
X79190476Y-107285552D02*
X79142857Y-107380790D01*
X79142857Y-107380790D02*
X79095238Y-107428409D01*
X79095238Y-107428409D02*
X79000000Y-107476028D01*
X79000000Y-107476028D02*
X78619048Y-107476028D01*
X79619048Y-107952219D02*
X79619048Y-106952219D01*
X79619048Y-107428409D02*
X80190476Y-107428409D01*
X80190476Y-107952219D02*
X80190476Y-106952219D01*
X80619048Y-107666504D02*
X81095238Y-107666504D01*
X80523810Y-107952219D02*
X80857143Y-106952219D01*
X80857143Y-106952219D02*
X81190476Y-107952219D01*
X81476191Y-107904600D02*
X81619048Y-107952219D01*
X81619048Y-107952219D02*
X81857143Y-107952219D01*
X81857143Y-107952219D02*
X81952381Y-107904600D01*
X81952381Y-107904600D02*
X82000000Y-107856980D01*
X82000000Y-107856980D02*
X82047619Y-107761742D01*
X82047619Y-107761742D02*
X82047619Y-107666504D01*
X82047619Y-107666504D02*
X82000000Y-107571266D01*
X82000000Y-107571266D02*
X81952381Y-107523647D01*
X81952381Y-107523647D02*
X81857143Y-107476028D01*
X81857143Y-107476028D02*
X81666667Y-107428409D01*
X81666667Y-107428409D02*
X81571429Y-107380790D01*
X81571429Y-107380790D02*
X81523810Y-107333171D01*
X81523810Y-107333171D02*
X81476191Y-107237933D01*
X81476191Y-107237933D02*
X81476191Y-107142695D01*
X81476191Y-107142695D02*
X81523810Y-107047457D01*
X81523810Y-107047457D02*
X81571429Y-106999838D01*
X81571429Y-106999838D02*
X81666667Y-106952219D01*
X81666667Y-106952219D02*
X81904762Y-106952219D01*
X81904762Y-106952219D02*
X82047619Y-106999838D01*
X82476191Y-107428409D02*
X82809524Y-107428409D01*
X82952381Y-107952219D02*
X82476191Y-107952219D01*
X82476191Y-107952219D02*
X82476191Y-106952219D01*
X82476191Y-106952219D02*
X82952381Y-106952219D01*
%TO.C,C16*%
D11*
X99738748Y-80265000D02*
X100261252Y-80265000D01*
X99738748Y-81735000D02*
X100261252Y-81735000D01*
%TO.C,RS1*%
X85272936Y-81515000D02*
X86727064Y-81515000D01*
X85272936Y-83335000D02*
X86727064Y-83335000D01*
%TO.C,C12*%
X95288748Y-94090000D02*
X96711252Y-94090000D01*
X95288748Y-95910000D02*
X96711252Y-95910000D01*
%TO.C,J3*%
X90620000Y-47620000D02*
X92000000Y-47620000D01*
X90620000Y-49000000D02*
X90620000Y-47620000D01*
X90620000Y-50270000D02*
X90620000Y-60540000D01*
X90620000Y-50270000D02*
X93380000Y-50270000D01*
X90620000Y-60540000D02*
X93380000Y-60540000D01*
X93380000Y-50270000D02*
X93380000Y-60540000D01*
%TO.C,R16*%
X49762742Y-49477500D02*
X50237258Y-49477500D01*
X49762742Y-50522500D02*
X50237258Y-50522500D01*
%TO.C,C2*%
X51150000Y-98240000D02*
X52400000Y-98240000D01*
X51775000Y-97615000D02*
X51775000Y-98865000D01*
X52640000Y-96704437D02*
X52640000Y-99490000D01*
X52640000Y-96704437D02*
X53704437Y-95640000D01*
X52640000Y-105295563D02*
X52640000Y-102510000D01*
X52640000Y-105295563D02*
X53704437Y-106360000D01*
X53704437Y-95640000D02*
X63360000Y-95640000D01*
X53704437Y-106360000D02*
X63360000Y-106360000D01*
X63360000Y-95640000D02*
X63360000Y-99490000D01*
X63360000Y-106360000D02*
X63360000Y-102510000D01*
%TO.C,R10*%
X69762742Y-61477500D02*
X70237258Y-61477500D01*
X69762742Y-62522500D02*
X70237258Y-62522500D01*
%TO.C,C10*%
X85859420Y-85490000D02*
X86140580Y-85490000D01*
X85859420Y-86510000D02*
X86140580Y-86510000D01*
%TO.C,C7*%
X66359420Y-85290000D02*
X66640580Y-85290000D01*
X66359420Y-86310000D02*
X66640580Y-86310000D01*
%TO.C,R3*%
X105477500Y-90237258D02*
X105477500Y-89762742D01*
X106522500Y-90237258D02*
X106522500Y-89762742D01*
%TO.C,R18*%
X65762742Y-49477500D02*
X66237258Y-49477500D01*
X65762742Y-50522500D02*
X66237258Y-50522500D01*
%TO.C,TP7*%
X85237500Y-79500000D02*
G75*
G02*
X83837500Y-79500000I-700000J0D01*
G01*
X83837500Y-79500000D02*
G75*
G02*
X85237500Y-79500000I700000J0D01*
G01*
%TO.C,U1*%
X72100000Y-80900000D02*
X72900000Y-80900000D01*
%TO.C,C15*%
X95738748Y-80265000D02*
X96261252Y-80265000D01*
X95738748Y-81735000D02*
X96261252Y-81735000D01*
%TO.C,C14*%
X95859420Y-84490000D02*
X96140580Y-84490000D01*
X95859420Y-85510000D02*
X96140580Y-85510000D01*
%TO.C,R1*%
X47762742Y-78477500D02*
X48237258Y-78477500D01*
X47762742Y-79522500D02*
X48237258Y-79522500D01*
%TO.C,Q1*%
X47940000Y-82440000D02*
X52060000Y-82440000D01*
X47940000Y-82535000D02*
X47940000Y-82440000D01*
X47940000Y-87560000D02*
X47940000Y-87465000D01*
X52060000Y-82440000D02*
X52060000Y-82535000D01*
X52060000Y-87465000D02*
X52060000Y-87560000D01*
X52060000Y-87560000D02*
X47940000Y-87560000D01*
X47400000Y-82530000D02*
X47160000Y-82200000D01*
X47640000Y-82200000D01*
X47400000Y-82530000D01*
G36*
X47400000Y-82530000D02*
G01*
X47160000Y-82200000D01*
X47640000Y-82200000D01*
X47400000Y-82530000D01*
G37*
%TO.C,RS2*%
X66727064Y-81515000D02*
X65272936Y-81515000D01*
X66727064Y-83335000D02*
X65272936Y-83335000D01*
%TO.C,C3*%
X61288748Y-91590000D02*
X62711252Y-91590000D01*
X61288748Y-93410000D02*
X62711252Y-93410000D01*
%TO.C,R5*%
X90762742Y-80477500D02*
X91237258Y-80477500D01*
X90762742Y-81522500D02*
X91237258Y-81522500D01*
%TO.C,TP13*%
X85237500Y-76500000D02*
G75*
G02*
X83837500Y-76500000I-700000J0D01*
G01*
X83837500Y-76500000D02*
G75*
G02*
X85237500Y-76500000I700000J0D01*
G01*
%TO.C,TP10*%
X64700000Y-77000000D02*
G75*
G02*
X63300000Y-77000000I-700000J0D01*
G01*
X63300000Y-77000000D02*
G75*
G02*
X64700000Y-77000000I700000J0D01*
G01*
%TO.C,R4*%
X105477500Y-94237258D02*
X105477500Y-93762742D01*
X106522500Y-94237258D02*
X106522500Y-93762742D01*
%TO.C,R21*%
X42762742Y-52477500D02*
X43237258Y-52477500D01*
X42762742Y-53522500D02*
X43237258Y-53522500D01*
%TO.C,TP1*%
X56700000Y-79500000D02*
G75*
G02*
X55300000Y-79500000I-700000J0D01*
G01*
X55300000Y-79500000D02*
G75*
G02*
X56700000Y-79500000I700000J0D01*
G01*
%TO.C,D11*%
X37515000Y-52265000D02*
X37515000Y-53735000D01*
X37515000Y-53735000D02*
X39800000Y-53735000D01*
X39800000Y-52265000D02*
X37515000Y-52265000D01*
%TO.C,R13*%
X43762742Y-61477500D02*
X44237258Y-61477500D01*
X43762742Y-62522500D02*
X44237258Y-62522500D01*
%TO.C,TP3*%
X40700000Y-73000000D02*
G75*
G02*
X39300000Y-73000000I-700000J0D01*
G01*
X39300000Y-73000000D02*
G75*
G02*
X40700000Y-73000000I700000J0D01*
G01*
%TO.C,TP6*%
X61700000Y-73000000D02*
G75*
G02*
X60300000Y-73000000I-700000J0D01*
G01*
X60300000Y-73000000D02*
G75*
G02*
X61700000Y-73000000I700000J0D01*
G01*
%TO.C,R22*%
X73762742Y-49477500D02*
X74237258Y-49477500D01*
X73762742Y-50522500D02*
X74237258Y-50522500D01*
%TO.C,C19*%
X49859420Y-61490000D02*
X50140580Y-61490000D01*
X49859420Y-62510000D02*
X50140580Y-62510000D01*
%TO.C,C1*%
X37150000Y-98240000D02*
X38400000Y-98240000D01*
X37775000Y-97615000D02*
X37775000Y-98865000D01*
X38640000Y-96704437D02*
X38640000Y-99490000D01*
X38640000Y-96704437D02*
X39704437Y-95640000D01*
X38640000Y-105295563D02*
X38640000Y-102510000D01*
X38640000Y-105295563D02*
X39704437Y-106360000D01*
X39704437Y-95640000D02*
X49360000Y-95640000D01*
X39704437Y-106360000D02*
X49360000Y-106360000D01*
X49360000Y-95640000D02*
X49360000Y-99490000D01*
X49360000Y-106360000D02*
X49360000Y-102510000D01*
%TO.C,D10*%
X37515000Y-49265000D02*
X37515000Y-50735000D01*
X37515000Y-50735000D02*
X39800000Y-50735000D01*
X39800000Y-49265000D02*
X37515000Y-49265000D01*
%TO.C,J4*%
X83620000Y-47620000D02*
X85000000Y-47620000D01*
X83620000Y-49000000D02*
X83620000Y-47620000D01*
X83620000Y-50270000D02*
X83620000Y-60540000D01*
X83620000Y-50270000D02*
X86380000Y-50270000D01*
X83620000Y-60540000D02*
X86380000Y-60540000D01*
X86380000Y-50270000D02*
X86380000Y-60540000D01*
%TO.C,R9*%
X69762742Y-64477500D02*
X70237258Y-64477500D01*
X69762742Y-65522500D02*
X70237258Y-65522500D01*
%TO.C,R20*%
X42762742Y-49477500D02*
X43237258Y-49477500D01*
X42762742Y-50522500D02*
X43237258Y-50522500D01*
%TO.C,C21*%
X79150000Y-98240000D02*
X80400000Y-98240000D01*
X79775000Y-97615000D02*
X79775000Y-98865000D01*
X80640000Y-96704437D02*
X80640000Y-99490000D01*
X80640000Y-96704437D02*
X81704437Y-95640000D01*
X80640000Y-105295563D02*
X80640000Y-102510000D01*
X80640000Y-105295563D02*
X81704437Y-106360000D01*
X81704437Y-95640000D02*
X91360000Y-95640000D01*
X81704437Y-106360000D02*
X91360000Y-106360000D01*
X91360000Y-95640000D02*
X91360000Y-99490000D01*
X91360000Y-106360000D02*
X91360000Y-102510000D01*
%TO.C,C9*%
X66761252Y-87765000D02*
X66238748Y-87765000D01*
X66761252Y-89235000D02*
X66238748Y-89235000D01*
%TO.C,R14*%
X57762742Y-49477500D02*
X58237258Y-49477500D01*
X57762742Y-50522500D02*
X58237258Y-50522500D01*
%TO.C,TP12*%
X40700000Y-69000000D02*
G75*
G02*
X39300000Y-69000000I-700000J0D01*
G01*
X39300000Y-69000000D02*
G75*
G02*
X40700000Y-69000000I700000J0D01*
G01*
%TO.C,R17*%
X53762742Y-49477500D02*
X54237258Y-49477500D01*
X53762742Y-50522500D02*
X54237258Y-50522500D01*
%TO.C,R6*%
X90762742Y-77477500D02*
X91237258Y-77477500D01*
X90762742Y-78522500D02*
X91237258Y-78522500D01*
%TO.C,C8*%
X61859420Y-88490000D02*
X62140580Y-88490000D01*
X61859420Y-89510000D02*
X62140580Y-89510000D01*
%TO.C,J2*%
X73940000Y-65090000D02*
X89940000Y-65090000D01*
X73940000Y-72110000D02*
X73940000Y-65090000D01*
X75140000Y-72110000D02*
X73940000Y-72110000D01*
X75140000Y-73810000D02*
X75140000Y-72110000D01*
X88740000Y-72110000D02*
X88740000Y-73810000D01*
X88740000Y-73810000D02*
X75140000Y-73810000D01*
X89940000Y-65090000D02*
X89940000Y-72110000D01*
X89940000Y-72110000D02*
X88740000Y-72110000D01*
X90140000Y-70000000D02*
X90740000Y-69700000D01*
X90740000Y-69700000D02*
X90740000Y-70300000D01*
X90740000Y-70300000D02*
X90140000Y-70000000D01*
%TO.C,C20*%
X65150000Y-98240000D02*
X66400000Y-98240000D01*
X65775000Y-97615000D02*
X65775000Y-98865000D01*
X66640000Y-96704437D02*
X66640000Y-99490000D01*
X66640000Y-96704437D02*
X67704437Y-95640000D01*
X66640000Y-105295563D02*
X66640000Y-102510000D01*
X66640000Y-105295563D02*
X67704437Y-106360000D01*
X67704437Y-95640000D02*
X77360000Y-95640000D01*
X67704437Y-106360000D02*
X77360000Y-106360000D01*
X77360000Y-95640000D02*
X77360000Y-99490000D01*
X77360000Y-106360000D02*
X77360000Y-102510000D01*
%TO.C,U3*%
X95090000Y-88440000D02*
X96910000Y-88440000D01*
X95090000Y-88490000D02*
X95090000Y-88440000D01*
X95090000Y-91560000D02*
X95090000Y-91510000D01*
X96910000Y-88440000D02*
X96910000Y-88490000D01*
X96910000Y-91510000D02*
X96910000Y-91560000D01*
X96910000Y-91560000D02*
X95090000Y-91560000D01*
X94550000Y-88490000D02*
X94310000Y-88160000D01*
X94790000Y-88160000D01*
X94550000Y-88490000D01*
G36*
X94550000Y-88490000D02*
G01*
X94310000Y-88160000D01*
X94790000Y-88160000D01*
X94550000Y-88490000D01*
G37*
%TO.C,TP11*%
X106700000Y-81000000D02*
G75*
G02*
X105300000Y-81000000I-700000J0D01*
G01*
X105300000Y-81000000D02*
G75*
G02*
X106700000Y-81000000I700000J0D01*
G01*
%TO.C,TP8*%
X68162500Y-79500000D02*
G75*
G02*
X66762500Y-79500000I-700000J0D01*
G01*
X66762500Y-79500000D02*
G75*
G02*
X68162500Y-79500000I700000J0D01*
G01*
%TO.C,D1*%
X53850000Y-89660000D02*
X53850000Y-83850000D01*
X53850000Y-89660000D02*
X58150000Y-89660000D01*
X58150000Y-89660000D02*
X58150000Y-83850000D01*
%TO.C,R11*%
X69762742Y-58477500D02*
X70237258Y-58477500D01*
X69762742Y-59522500D02*
X70237258Y-59522500D01*
%TO.C,R7*%
X43762742Y-67477500D02*
X44237258Y-67477500D01*
X43762742Y-68522500D02*
X44237258Y-68522500D01*
%TO.C,TP5*%
X54700000Y-73000000D02*
G75*
G02*
X53300000Y-73000000I-700000J0D01*
G01*
X53300000Y-73000000D02*
G75*
G02*
X54700000Y-73000000I700000J0D01*
G01*
%TO.C,TP9*%
X60700000Y-79500000D02*
G75*
G02*
X59300000Y-79500000I-700000J0D01*
G01*
X59300000Y-79500000D02*
G75*
G02*
X60700000Y-79500000I700000J0D01*
G01*
%TO.C,C5*%
X61859420Y-85290000D02*
X62140580Y-85290000D01*
X61859420Y-86310000D02*
X62140580Y-86310000D01*
%TO.C,R8*%
X43762742Y-64477500D02*
X44237258Y-64477500D01*
X43762742Y-65522500D02*
X44237258Y-65522500D01*
%TO.C,R2*%
X51762742Y-78477500D02*
X52237258Y-78477500D01*
X51762742Y-79522500D02*
X52237258Y-79522500D01*
%TO.C,C4*%
X89288748Y-88090000D02*
X90711252Y-88090000D01*
X89288748Y-89910000D02*
X90711252Y-89910000D01*
%TO.C,C17*%
X49859420Y-67490000D02*
X50140580Y-67490000D01*
X49859420Y-68510000D02*
X50140580Y-68510000D01*
%TO.C,R12*%
X73762742Y-58477500D02*
X74237258Y-58477500D01*
X73762742Y-59522500D02*
X74237258Y-59522500D01*
%TO.C,R15*%
X61762742Y-49477500D02*
X62237258Y-49477500D01*
X61762742Y-50522500D02*
X62237258Y-50522500D01*
%TO.C,C18*%
X49859420Y-64490000D02*
X50140580Y-64490000D01*
X49859420Y-65510000D02*
X50140580Y-65510000D01*
%TO.C,C11*%
X85859420Y-88490000D02*
X86140580Y-88490000D01*
X85859420Y-89510000D02*
X86140580Y-89510000D01*
%TO.C,C13*%
X100859420Y-94490000D02*
X101140580Y-94490000D01*
X100859420Y-95510000D02*
X101140580Y-95510000D01*
%TO.C,C6*%
X89859420Y-84990000D02*
X90140580Y-84990000D01*
X89859420Y-86010000D02*
X90140580Y-86010000D01*
%TO.C,TP4*%
X47700000Y-73000000D02*
G75*
G02*
X46300000Y-73000000I-700000J0D01*
G01*
X46300000Y-73000000D02*
G75*
G02*
X47700000Y-73000000I700000J0D01*
G01*
%TO.C,J5*%
X97620000Y-47620000D02*
X99000000Y-47620000D01*
X97620000Y-49000000D02*
X97620000Y-47620000D01*
X97620000Y-50270000D02*
X97620000Y-55460000D01*
X97620000Y-50270000D02*
X100380000Y-50270000D01*
X97620000Y-55460000D02*
X100380000Y-55460000D01*
X100380000Y-50270000D02*
X100380000Y-55460000D01*
%TO.C,TP2*%
X106700000Y-85000000D02*
G75*
G02*
X105300000Y-85000000I-700000J0D01*
G01*
X105300000Y-85000000D02*
G75*
G02*
X106700000Y-85000000I700000J0D01*
G01*
%TO.C,U2*%
X56390000Y-60390000D02*
X56690000Y-60390000D01*
X56390000Y-60690000D02*
X56390000Y-60390000D01*
X56390000Y-67610000D02*
X56390000Y-67310000D01*
X56690000Y-67610000D02*
X56390000Y-67610000D01*
X63310000Y-60390000D02*
X63610000Y-60390000D01*
X63610000Y-60390000D02*
X63610000Y-60690000D01*
X63610000Y-67310000D02*
X63610000Y-67610000D01*
X63610000Y-67610000D02*
X63310000Y-67610000D01*
X55750000Y-60680000D02*
X55410000Y-60210000D01*
X56090000Y-60210000D01*
X55750000Y-60680000D01*
G36*
X55750000Y-60680000D02*
G01*
X55410000Y-60210000D01*
X56090000Y-60210000D01*
X55750000Y-60680000D01*
G37*
%TO.C,R19*%
X69762742Y-49477500D02*
X70237258Y-49477500D01*
X69762742Y-50522500D02*
X70237258Y-50522500D01*
%TD*%
%LPC*%
D12*
%TO.C,C16*%
X99050000Y-81000000D03*
X100950000Y-81000000D03*
%TD*%
D13*
%TO.C,RS1*%
X84537500Y-82425000D03*
X87462500Y-82425000D03*
%TD*%
D14*
%TO.C,C12*%
X94525000Y-95000000D03*
X97475000Y-95000000D03*
%TD*%
D15*
%TO.C,J3*%
X92000000Y-49000000D03*
D16*
X92000000Y-51540000D03*
X92000000Y-54080000D03*
X92000000Y-56620000D03*
X92000000Y-59160000D03*
%TD*%
D17*
%TO.C,R16*%
X49175000Y-50000000D03*
X50825000Y-50000000D03*
%TD*%
D18*
%TO.C,C2*%
X53800000Y-101000000D03*
X62200000Y-101000000D03*
%TD*%
D17*
%TO.C,R10*%
X69175000Y-62000000D03*
X70825000Y-62000000D03*
%TD*%
D19*
%TO.C,D5*%
X61650000Y-53000000D03*
X62350000Y-53000000D03*
%TD*%
D20*
%TO.C,L1*%
X100500000Y-85000000D03*
X103500000Y-85000000D03*
%TD*%
D21*
%TO.C,C10*%
X85225000Y-86000000D03*
X86775000Y-86000000D03*
%TD*%
%TO.C,C7*%
X65725000Y-85800000D03*
X67275000Y-85800000D03*
%TD*%
D19*
%TO.C,D8*%
X73650000Y-53000000D03*
X74350000Y-53000000D03*
%TD*%
D22*
%TO.C,R3*%
X106000000Y-90825000D03*
X106000000Y-89175000D03*
%TD*%
D17*
%TO.C,R18*%
X65175000Y-50000000D03*
X66825000Y-50000000D03*
%TD*%
D23*
%TO.C,H3*%
X33500000Y-48500000D03*
%TD*%
%TO.C,H2*%
X106500000Y-106500000D03*
%TD*%
D24*
%TO.C,TP7*%
X84537500Y-79500000D03*
%TD*%
D25*
%TO.C,U1*%
X76000000Y-83300000D03*
X76000000Y-85100000D03*
X76000000Y-86900000D03*
X76000000Y-88700000D03*
D26*
X73125000Y-81775000D03*
X73125000Y-82425000D03*
X73125000Y-83075000D03*
X73125000Y-83725000D03*
X73125000Y-84375000D03*
X73125000Y-85025000D03*
X73125000Y-85675000D03*
X73125000Y-86325000D03*
X73125000Y-86975000D03*
X73125000Y-87625000D03*
X73125000Y-88275000D03*
X73125000Y-88925000D03*
X73125000Y-89575000D03*
X73125000Y-90225000D03*
X78875000Y-90225000D03*
X78875000Y-89575000D03*
X78875000Y-88925000D03*
X78875000Y-88275000D03*
X78875000Y-87625000D03*
X78875000Y-86975000D03*
X78875000Y-86325000D03*
X78875000Y-85675000D03*
X78875000Y-85025000D03*
X78875000Y-84375000D03*
X78875000Y-83725000D03*
X78875000Y-83075000D03*
X78875000Y-82425000D03*
X78875000Y-81775000D03*
%TD*%
D12*
%TO.C,C15*%
X95050000Y-81000000D03*
X96950000Y-81000000D03*
%TD*%
D21*
%TO.C,C14*%
X95225000Y-85000000D03*
X96775000Y-85000000D03*
%TD*%
D17*
%TO.C,R1*%
X47175000Y-79000000D03*
X48825000Y-79000000D03*
%TD*%
D27*
%TO.C,Q1*%
X47525000Y-83095000D03*
X47525000Y-84365000D03*
X47525000Y-85635000D03*
X47525000Y-86905000D03*
X52475000Y-86905000D03*
X52475000Y-85635000D03*
X52475000Y-84365000D03*
X52475000Y-83095000D03*
%TD*%
D28*
%TO.C,RS2*%
X67462500Y-82425000D03*
X64537500Y-82425000D03*
%TD*%
D19*
%TO.C,D3*%
X53650000Y-53000000D03*
X54350000Y-53000000D03*
%TD*%
D14*
%TO.C,C3*%
X60525000Y-92500000D03*
X63475000Y-92500000D03*
%TD*%
D17*
%TO.C,R5*%
X90175000Y-81000000D03*
X91825000Y-81000000D03*
%TD*%
D24*
%TO.C,TP13*%
X84537500Y-76500000D03*
%TD*%
%TO.C,TP10*%
X64000000Y-77000000D03*
%TD*%
D22*
%TO.C,R4*%
X106000000Y-94825000D03*
X106000000Y-93175000D03*
%TD*%
D17*
%TO.C,R21*%
X42175000Y-53000000D03*
X43825000Y-53000000D03*
%TD*%
D24*
%TO.C,TP1*%
X56000000Y-79500000D03*
%TD*%
D29*
%TO.C,D11*%
X38212500Y-53000000D03*
X39787500Y-53000000D03*
%TD*%
D17*
%TO.C,R13*%
X43175000Y-62000000D03*
X44825000Y-62000000D03*
%TD*%
D24*
%TO.C,TP3*%
X40000000Y-73000000D03*
%TD*%
%TO.C,TP6*%
X61000000Y-73000000D03*
%TD*%
D23*
%TO.C,H4*%
X106500000Y-48500000D03*
%TD*%
D17*
%TO.C,R22*%
X73175000Y-50000000D03*
X74825000Y-50000000D03*
%TD*%
D21*
%TO.C,C19*%
X49225000Y-62000000D03*
X50775000Y-62000000D03*
%TD*%
D18*
%TO.C,C1*%
X39800000Y-101000000D03*
X48200000Y-101000000D03*
%TD*%
D29*
%TO.C,D10*%
X38212500Y-50000000D03*
X39787500Y-50000000D03*
%TD*%
D19*
%TO.C,D6*%
X65650000Y-53000000D03*
X66350000Y-53000000D03*
%TD*%
D30*
%TO.C,J1*%
X37000000Y-87540000D03*
D31*
X37000000Y-82460000D03*
%TD*%
D15*
%TO.C,J4*%
X85000000Y-49000000D03*
D16*
X85000000Y-51540000D03*
X85000000Y-54080000D03*
X85000000Y-56620000D03*
X85000000Y-59160000D03*
%TD*%
D17*
%TO.C,R9*%
X69175000Y-65000000D03*
X70825000Y-65000000D03*
%TD*%
%TO.C,R20*%
X42175000Y-50000000D03*
X43825000Y-50000000D03*
%TD*%
D18*
%TO.C,C21*%
X81800000Y-101000000D03*
X90200000Y-101000000D03*
%TD*%
D19*
%TO.C,D9*%
X77650000Y-53000000D03*
X78350000Y-53000000D03*
%TD*%
D32*
%TO.C,C9*%
X67450000Y-88500000D03*
X65550000Y-88500000D03*
%TD*%
D19*
%TO.C,D2*%
X49650000Y-53000000D03*
X50350000Y-53000000D03*
%TD*%
D17*
%TO.C,R14*%
X57175000Y-50000000D03*
X58825000Y-50000000D03*
%TD*%
D24*
%TO.C,TP12*%
X40000000Y-69000000D03*
%TD*%
D17*
%TO.C,R17*%
X53175000Y-50000000D03*
X54825000Y-50000000D03*
%TD*%
%TO.C,R6*%
X90175000Y-78000000D03*
X91825000Y-78000000D03*
%TD*%
D21*
%TO.C,C8*%
X61225000Y-89000000D03*
X62775000Y-89000000D03*
%TD*%
D33*
%TO.C,J2*%
X87880000Y-70000000D03*
D34*
X83920000Y-70000000D03*
X79960000Y-70000000D03*
X76000000Y-70000000D03*
%TD*%
D18*
%TO.C,C20*%
X67800000Y-101000000D03*
X76200000Y-101000000D03*
%TD*%
D35*
%TO.C,U3*%
X94862500Y-89050000D03*
X94862500Y-90000000D03*
X94862500Y-90950000D03*
X97137500Y-90950000D03*
X97137500Y-90000000D03*
X97137500Y-89050000D03*
%TD*%
D24*
%TO.C,TP11*%
X106000000Y-81000000D03*
%TD*%
%TO.C,TP8*%
X67462500Y-79500000D03*
%TD*%
D36*
%TO.C,D1*%
X56000000Y-88150000D03*
X56000000Y-83850000D03*
%TD*%
D17*
%TO.C,R11*%
X69175000Y-59000000D03*
X70825000Y-59000000D03*
%TD*%
%TO.C,R7*%
X43175000Y-68000000D03*
X44825000Y-68000000D03*
%TD*%
D24*
%TO.C,TP5*%
X54000000Y-73000000D03*
%TD*%
%TO.C,TP9*%
X60000000Y-79500000D03*
%TD*%
D21*
%TO.C,C5*%
X61225000Y-85800000D03*
X62775000Y-85800000D03*
%TD*%
D19*
%TO.C,D7*%
X69650000Y-53000000D03*
X70350000Y-53000000D03*
%TD*%
D17*
%TO.C,R8*%
X43175000Y-65000000D03*
X44825000Y-65000000D03*
%TD*%
%TO.C,R2*%
X51175000Y-79000000D03*
X52825000Y-79000000D03*
%TD*%
D19*
%TO.C,D4*%
X57650000Y-53000000D03*
X58350000Y-53000000D03*
%TD*%
D14*
%TO.C,C4*%
X88525000Y-89000000D03*
X91475000Y-89000000D03*
%TD*%
D21*
%TO.C,C17*%
X49225000Y-68000000D03*
X50775000Y-68000000D03*
%TD*%
D23*
%TO.C,H1*%
X33500000Y-106500000D03*
%TD*%
D17*
%TO.C,R12*%
X73175000Y-59000000D03*
X74825000Y-59000000D03*
%TD*%
%TO.C,R15*%
X61175000Y-50000000D03*
X62825000Y-50000000D03*
%TD*%
D21*
%TO.C,C18*%
X49225000Y-65000000D03*
X50775000Y-65000000D03*
%TD*%
%TO.C,C11*%
X85225000Y-89000000D03*
X86775000Y-89000000D03*
%TD*%
%TO.C,C13*%
X100225000Y-95000000D03*
X101775000Y-95000000D03*
%TD*%
%TO.C,C6*%
X89225000Y-85500000D03*
X90775000Y-85500000D03*
%TD*%
D24*
%TO.C,TP4*%
X47000000Y-73000000D03*
%TD*%
D15*
%TO.C,J5*%
X99000000Y-49000000D03*
D16*
X99000000Y-51540000D03*
X99000000Y-54080000D03*
%TD*%
D24*
%TO.C,TP2*%
X106000000Y-85000000D03*
%TD*%
D37*
%TO.C,U2*%
X55825000Y-61200000D03*
X55825000Y-62000000D03*
X55825000Y-62800000D03*
X55825000Y-63600000D03*
X55825000Y-64400000D03*
X55825000Y-65200000D03*
X55825000Y-66000000D03*
X55825000Y-66800000D03*
D38*
X57200000Y-68175000D03*
X58000000Y-68175000D03*
X58800000Y-68175000D03*
X59600000Y-68175000D03*
X60400000Y-68175000D03*
X61200000Y-68175000D03*
X62000000Y-68175000D03*
X62800000Y-68175000D03*
D37*
X64175000Y-66800000D03*
X64175000Y-66000000D03*
X64175000Y-65200000D03*
X64175000Y-64400000D03*
X64175000Y-63600000D03*
X64175000Y-62800000D03*
X64175000Y-62000000D03*
X64175000Y-61200000D03*
D38*
X62800000Y-59825000D03*
X62000000Y-59825000D03*
X61200000Y-59825000D03*
X60400000Y-59825000D03*
X59600000Y-59825000D03*
X58800000Y-59825000D03*
X58000000Y-59825000D03*
X57200000Y-59825000D03*
%TD*%
D17*
%TO.C,R19*%
X69175000Y-50000000D03*
X70825000Y-50000000D03*
%TD*%
%LPD*%
M02*
